<?xml version="1.0" encoding="UTF-8"?><svg id="Layer_1" xmlns="http://www.w3.org/2000/svg" viewBox="0 0 312 312"><defs><style>.cls-1{fill:#00afd8;}.cls-2{fill:#0080b7;}.cls-3{fill:#add361;}</style></defs><path class="cls-3" d="M54.75,311.61h57.98l-30.66-53.1-28.99,50.21c-.74,1.28,.19,2.89,1.67,2.89Z"/><polygon class="cls-1" points="89.33 245.93 127.24 311.61 186.67 311.61 119.04 194.47 89.33 245.93"/><path class="cls-2" d="M286,130.39C286,57.56,226.1-1.29,152.87,.43,84.32,2.04,28.23,57.64,26.07,126.18c-1.43,45.22,20.25,85.46,54.12,109.82l26.17-45.32c-19.06-15.72-30.54-40.29-28.13-67.43,3.35-37.73,34.05-67.93,71.83-70.73,45.82-3.39,84.04,32.78,84.04,77.87,0,28.87-15.67,54.06-38.96,67.57l-37.13-64.31c-.85-1.48-2.99-1.48-3.84,0l-27.86,48.25,74.89,129.71h56.18c1.5,0,2.44-1.63,1.69-2.93l-37.97-65.76c38.8-22.49,64.91-64.45,64.91-112.53Z"/></svg>